# xmcd CD database file
#
# Track frame offsets:
#       150
#       19417
#       39265
#       53005
#       66100
#       78247
#       89547
#       104050
#       116742
#       134302
#       145140
#       161140
#       173632
#       183777
#       195525
#       208407
#       221892
#       233557
#       245112
#       256772
#
# Disc length: 3632 seconds
#
# Revision: 2
# Processed by: cddbd v1.5.2PL0 Copyright (c) Steve Scherf et al.
# Submitted via: jack 3.1.1
#
DISCID=230e2e14
DTITLE=Various Artist - L'anthologie de la country CD 3
DYEAR=2002
DGENRE=Country
TTITLE0=Bobbie Gentry - Ode To Billie Joe
TTITLE1=Kenny Rogers - Coward of The Country
TTITLE2=Willie Nelson - Heartbreak Hotel
TTITLE3=Bobby Bare - Detroit City
TTITLE4=Penny Dettaven - Land Mark Tavern
TTITLE5=Merle Haggard - My Friends Are Gonna Be Strangers
TTITLE6=Mavericks - Oh What a Thrill
TTITLE7=Glen Campbell - I Wanna Live
TTITLE8=Mary Osmond and Dan Seyalls - Meet Me In Montana
TTITLE9=Faron Young - Hello Walls
TTITLE10=Kenny Rogers - The Gambler
TTITLE11=Harry Nilsson - I Guess The Lord Must Be in New-York City
TTITLE12=Willie Nelson - Touch Me
TTITLE13=Lynn Anderson - Rodeo Cow-Boy
TTITLE14=O'Kanes - Can't Stop My Heart From Loving You
TTITLE15=Mel Mc Daniel - Baby's Got Her Blue Jeans On
TTITLE16=Wand Jackson - In The Middle Of A Heartache
TTITLE17=Charlie Jouvain - I Don't Love You Anymore
TTITLE18=Crystal Gale - Don't It Make My Brown Eyes Blue
TTITLE19=Dart Band - An American Dream
EXTD=
EXTT0=
EXTT1=
EXTT2=
EXTT3=
EXTT4=
EXTT5=
EXTT6=
EXTT7=
EXTT8=
EXTT9=
EXTT10=
EXTT11=
EXTT12=
EXTT13=
EXTT14=
EXTT15=
EXTT16=
EXTT17=
EXTT18=
EXTT19=
PLAYORDER=
